v 0.426923 -1 0.8
v 0.513799 -0.763279 0.8
v 0.8 -0.725 0.8
v 0.546811 0.317279 0.8
v 0.8 0.240506 0.8
v -0.8 0.752564 0.8
v -0.582026 0.77584 0.8
v 0.393774 0.587723 0.8
v -0.565258 1 0.8
v 0.352551 1 0.8
v 0.8 0.0406573 -0.318275
v -0.8 0.596041 -0.496588
v -0.406001 0.612058 -0.425027
v -0.0531193 0.597042 -0.318269
v -0.8 1 -0.530055
v -0.400126 1 -0.519128
v 0.0141392 1 -0.410119
v -0.228778 -1 -0.144781
v 0.00315858 -1 -0.063678
v 0.322681 -1 -0.0974706
v -0.8 -0.49808 -0.0163615
v -0.376757 -0.568851 0.0044696
v 0.00699627 -0.605887 -0.0188538
v 0.279395 -0.778488 -0.134796
v -0.284553 -1 -0.8
v 0.230968 -1 -0.8
v -0.8 -0.505316 -0.8
v -0.269051 -0.679235 -0.8
v -0.0101938 -0.691834 -0.8
v 0.215635 -0.780904 -0.8
v -0.8 -0.111111 -0.8
v -0.439187 -0.225081 -0.8
v 0.107723 -0.0433473 -0.8
v 0.399952 -0.0764924 -0.8
v 0.8 -0.0801471 -0.8
v -0.8 0.205128 -0.8
v -0.419572 0.0665669 -0.8
v -0.0891029 0.0203994 -0.8
v 0.502189 -1 0.516251
v 0.8 -1 0.460465
v -0.279676 -0.430599 0.238772
v -0.114272 -0.432975 0.241156
v 0.540661 -0.770726 0.551625
v 0.8 -0.759744 0.528751
v -0.280696 -0.31786 0.240888
v 0.000777832 -0.202683 0.214999
v 0.397814 -0.0667225 0.230105
v 0.8 -0.0301854 0.253709
v -0.8 0.315077 0.241789
v -0.400541 0.278314 0.246315
v -0.00705412 0.170712 0.212738
v 0.465146 0.20352 0.315127
v 0.8 0.146681 0.431275
v -0.8 0.607342 0.403509
v -0.491589 0.614962 0.300747
v -0.126162 0.440512 0.235692
v 0.395374 0.595169 0.398769
v -0.505159 1 0.400225
v 0.368295 1 0.39892
v -0.271428 -1 -0.399988
v 0.276296 -1 -0.373796
v -0.8 -0.552631 -0.401432
v -0.369908 -0.601173 -0.494335
v -0.0200007 -0.590713 -0.415998
v 0.256557 -0.791722 -0.397198
v -0.8 -0.0561369 -0.578339
v -0.383125 -0.177102 -0.567558
v 0.138659 -0.0299787 -0.570355
v 0.399619 -0.0410372 -0.53905
v 0.8 -0.0449551 -0.515956
v -0.8 0.104323 -0.570951
v -0.401217 0.0409938 -0.565483
v -0.0411544 0.0837034 -0.315111
v 0.39717 0.0641235 -0.334505
v -0.461199 -0.488701 -0.8
v -0.8 -0.20044 0.136964
v -0.408436 -0.190705 0.1607
v -0.00914153 -0.152534 0.0807836
v 0.397902 -0.0703856 0.178319
v 0.8 -0.0286063 0.164365
v -0.8 0.3639 -0.106544
v -0.42428 0.274879 -0.0658586
v -0.0806875 0.130112 0.122066
v 0.317411 0.147524 0.0479446
v 0.8 0.0658522 -0.0296098
v -0.8 0.599958 -0.0129021
v -0.43664 0.564445 0.123876
v 0.129307 0.604057 -0.0966906
v 0.299342 0.600606 0.0978105
v -0.8 1 -0.0106582
v -0.515274 1 0.0888341
v 0.160038 1 -0.137367
v 0.314012 1 0.0508501
v -0.065178 -0.186804 -0.372266
v -0.8 0.361811 -0.318377
v -0.401777 0.309736 -0.296363
v -0.8 0.124189 0.138731
v -0.397506 0.0898392 0.135759
v -0.12393 0.448571 0.152048
v 0.101404 0.298245 -0.092004
vn -0.563288 0.799123 -0.210021
vn -0.368953 0.915244 -0.161868
vn -0.233366 0.945211 -0.228292
vn -0.48849 -0.870947 0.0531874
vn -0.213658 -0.97464 0.0665341
vn 0.519468 -0.828112 0.210672
vn 0.798879 -0.584244 0.143007
vn -0.946815 -0.321741 -0.00478661
vn 0.937841 -0.314988 0.145725
vn -0.997928 -0.0585086 -0.026761
vn -0.0466204 -0.982316 0.181332
vn -0.602583 0.450629 0.658655
vn -0.498867 0.435252 0.749458
vn -0.632826 0.236718 0.737222
vn -0.0686015 0.0869579 0.993847
vn -0.219268 0.305 0.926767
vn -0.661991 0.358151 0.658405
vn -0.83269 -0.321759 0.450665
vn -0.818813 -0.0491564 0.571952
vn 0.394713 0.918801 0.00253068
vn -0.116667 -0.926405 0.357999
vn -0.264518 -0.830926 0.489481
vn 0.798317 -0.0487404 0.600262
vn 0.313108 0.948741 0.0430612
vn -0.998484 0.041159 0.0365333
vn 0.945677 0.321887 -0.0456459
vn 0.0426289 -0.97983 -0.195234
vn -0.886576 0.360042 -0.290435
vn 0.532851 0.837186 -0.123243
vn 0.838315 0.54454 -0.0265348
vn 0.177329 -0.129174 -0.975637
vn 0.533995 -0.593528 -0.602141
vn -0.122322 -0.987866 0.0957005
vn -0.0388571 -0.993179 0.109939
vn -0.0032636 -0.99629 0.0859956
vn -0.835838 -0.0352531 -0.547843
vn -0.474363 -0.805471 -0.35524
vn -0.2071 -0.978316 0.00270122
vn -0.472393 0.703911 -0.530428
vn -0.177746 0.661615 -0.728473
vn -0.0707673 -0.3884 0.91877
vn 0.103911 -0.232128 0.967119
vn -0.327617 0.870995 -0.366109
vn -0.164123 0.869059 -0.466691
vn -0.0361964 -0.302581 0.952436
vn 0.0730333 -0.196103 0.97786
vn 0.0366098 -0.970669 -0.237614
vn 0.0106458 -0.986036 -0.166192
vn -0.0394721 -0.583118 0.811428
vn 0.0320558 -0.0812536 0.996178
vn -0.110111 0.447957 0.887249
vn -0.402009 -0.564593 0.720849
vn -0.168532 -0.922344 0.347677
vn 0.403775 -0.810318 0.424676
vn 0.903575 -0.315651 0.289682
vn 0.357147 0.768697 0.530613
vn -0.931547 -0.193746 0.307706
vn 0.991085 -0.13283 -0.0103268
vn -0.997581 -0.0409888 0.0561426
vn -0.924067 -0.193463 0.329654
vn 0.819087 0.568724 -0.0751589
vn -0.111714 -0.990809 0.0762759
vn -0.250664 -0.860229 -0.444041
vn 0.891071 0.379071 -0.249597
vn 0.635198 0.771592 -0.0341902
vn 0.0730258 0.0872421 -0.993507
vn 0.364476 -0.472851 -0.802228
vn -0.105381 -0.970624 0.216295
vn -0.043759 -0.97785 0.204681
vn -0.0147692 -0.986634 0.162278
vn -0.153826 0.211008 -0.965305
vn -0.186781 -0.671995 -0.716614
vn 0.691357 -0.280987 0.665637
vn -0.0845213 -0.960814 0.263996
vn 0.506732 -0.717028 -0.478638
vn -0.0427686 -0.539052 0.841186
vn -0.0729418 -0.360755 0.929804
vn 0.731815 0.0168734 0.681294
vn 0.166825 -0.939717 -0.298499
vn 0.023239 -0.984024 -0.176511
vn 0.212672 0.967408 0.137446
vn 0.260342 0.839292 0.477296
vn 0.0239945 0.43232 0.901401
vn -0.319751 -0.627608 0.709837
vn -0.0648966 -0.9767 0.204562
vn 0.763646 0.589357 -0.263635
vn 0.850034 0.359498 0.384972
vn -0.741416 0.028512 0.67044
vn -0.665242 0.089215 0.741279
vn 0.70402 0.00538483 -0.71016
vn 0.948898 0.0356524 -0.313562
vn -0.86518 0.0696419 0.496603
vn -0.893876 0.0822397 0.440707
vn 0.952393 -0.152042 -0.264254
vn 0.0231659 0.999731 0.00058152
vn -0.111446 0.876951 0.467479
vn -0.00957609 -0.154548 0.987939
vn -0.00045287 0.0706346 0.997502
vn 0.237137 0.788695 0.56721
vn -0.572218 -0.0869187 0.815482
f 67//67 63//63 75//75 32//32
f 66//66 67//67 32//32 31//31
f 94//94 64//64 63//63 67//67
f 68//68 33//33 34//34 69//69
f 69//69 34//34 35//35 70//70
f 71//71 36//36 37//37 72//72
f 72//72 67//67 66//66 71//71
f 73//73 38//38 33//33 68//68
f 72//72 37//37 38//38 73//73
f 73//73 94//94 67//67 72//72
f 74//74 73//73 68//68 69//69
f 11//11 74//74 69//69 70//70
f 13//13 12//12 95//95 96//96
f 14//14 13//13 96//96 73//73
f 16//16 15//15 12//12 13//13
f 17//17 16//16 13//13 14//14
f 63//63 28//28 25//25 60//60
f 62//62 27//27 75//75 63//63
f 63//63 64//64 29//29 28//28
f 65//65 61//61 26//26 30//30
f 64//64 65//65 30//30 29//29
f 22//22 63//63 60//60 18//18
f 21//21 62//62 63//63 22//22
f 23//23 22//22 18//18 19//19
f 24//24 20//20 61//61 65//65
f 23//23 24//24 65//65 64//64
f 24//24 23//23 19//19 20//20
f 77//77 76//76 21//21 22//22
f 78//78 23//23 64//64 94//94
f 81//81 82//82 96//96 95//95
f 98//98 97//97 76//76 77//77
f 83//83 78//78 94//94 73//73
f 82//82 83//83 73//73 96//96
f 83//83 98//98 77//77 78//78
f 100//100 73//73 74//74 84//84
f 84//84 79//79 78//78 83//83
f 84//84 74//74 11//11 85//85
f 85//85 80//80 79//79 84//84
f 87//87 82//82 81//81 86//86
f 88//88 14//14 73//73 100//100
f 99//99 83//83 82//82 87//87
f 89//89 88//88 100//100 84//84
f 91//91 87//87 86//86 90//90
f 92//92 17//17 14//14 88//88
f 93//93 92//92 88//88 89//89
f 41//41 22//22 23//23 42//42
f 44//44 40//40 39//39 43//43
f 45//45 77//77 22//22 41//41
f 46//46 42//42 23//23 78//78
f 45//45 46//46 78//78 77//77
f 46//46 45//45 41//41 42//42
f 46//46 78//78 79//79 47//47
f 47//47 79//79 80//80 48//48
f 49//49 97//97 98//98 50//50
f 51//51 83//83 78//78 46//46
f 50//50 98//98 83//83 51//51
f 51//51 52//52 84//84 83//83
f 52//52 51//51 46//46 47//47
f 53//53 52//52 47//47 48//48
f 55//55 54//54 49//49 50//50
f 56//56 51//51 83//83 99//99
f 55//55 56//56 99//99 87//87
f 56//56 55//55 50//50 51//51
f 57//57 89//89 84//84 52//52
f 58//58 55//55 87//87 91//91
f 59//59 93//93 89//89 57//57
f 6//6 54//54 55//55 7//7
f 8//8 57//57 52//52 4//4
f 9//9 7//7 55//55 58//58
f 10//10 59//59 57//57 8//8
f 2//2 43//43 39//39 1//1
f 2//2 3//3 44//44 43//43
f 4//4 52//52 53//53 5//5
